# xmcd
#
# Track frame offsets:
#	150
#	15572
#	29135
#	41738
#	56676
#	72043
#	87756
#	101309
#	115585
#	128984
#	143325
#	158525
#	173199
#	189444
#	203555
#	218409
#	230744
#	242095
#	254587
#	268201
#
# Disc length: 3762 seconds
#
# Revision: 0
# Processed by: cddbd v1.5.2PL0 Copyright (c) Steve Scherf et al.
# Submitted via: EasyCDDAExtractor 16.0.6.1
#
DISCID=0f0eb014
DTITLE=Αγγελόπουλος Μανώλης - Τραγούδια 45 στροφές-Αγγελόπουλος Μανώλης 4
DYEAR=2000
DGENRE=Λαϊκή
TTITLE0=Αγγελόπουλος Μανώλης-Βασιλείου Αννούλα - Μέσ' στο γλυκό της αγάπης κρα
TTITLE0=σί [1965, Βασίλης Καραπατάκης]
TTITLE1=Αγγελόπουλος Μανώλης - Φτωχοκόριτσα [1965, Μανώλης Αγγελόπουλος]
TTITLE2=Αγγελόπουλος Μανώλης - Ο δρόμος [1966, Μανώλης Αγγελόπουλος]
TTITLE3=Αγγελόπουλος Μανώλης - Μαριτάνα [1960, Μπάμπης Μπακάλης-Δημήτρης Γκούτ
TTITLE3=ης]
TTITLE4=Αγγελόπουλος Μανώλης - Τα φλογισμένα χείλη σου [1966, Στράτος Ατταλίδη
TTITLE4=ς-Τζένη Σταυρίδου]
TTITLE5=Αγγελόπουλος Μανώλης - Από γκρεμό και ποταμό [1962, Γιώργος Μητσάκης]
TTITLE6=Αγγελόπουλος Μανώλης-Βασιλείου Αννούλα - Τρεις ανθρώπους αγαπώ [1963, 
TTITLE6=Γιώργος Μανησαλής-Κώστας Βίρβος]
TTITLE7=Αγγελόπουλος Μανώλης-Βασιλείου Αννούλα - Από τις θάλασσες και από τις 
TTITLE7=φωτιές [1963, Μπάμπης Μπακάλης]
TTITLE8=Αγγελόπουλος Μανώλης-Βασιλείου Αννούλα - Ας μπορούσα να φύγω [1967, Νί
TTITLE8=κος Δαλέζιος]
TTITLE9=Αγγελόπουλος Μανώλης - Φεύγω, έχε γεια [1963, Χρήστος Κολοκοτρώνης-Ανν
TTITLE9=ούλα Βασιλείου]
TTITLE10=Αγγελόπουλος Μανώλης-Βασιλείου Αννούλα - Στάξε καρδιά το αίμα σου [19
TTITLE10=63, Θεόδωρος Δερβενιώτης]
TTITLE11=Αγγελόπουλος Μανώλης - Μάζεψε τα πράγματά σου [1963, Μπάμπης Μπακάλης
TTITLE11=]
TTITLE12=Αγγελόπουλος Μανώλης - Έτσι όπως φέρεσαι [1963, Νίκος Καρανικόλας]
TTITLE13=Αγγελόπουλος Μανώλης-Βασιλείου Αννούλα - Δίχως εσένα είμαι χαμένος [1
TTITLE13=963, Αννούλα Βασιλείου-Μιχάλης Αλεξάκης]
TTITLE14=Αγγελόπουλος Μανώλης - Μιά φορά κανείς πεθαίνει [1962, Θεόδωρος Δερβε
TTITLE14=νιώτης]
TTITLE15=Αγγελόπουλος Μανώλης-Πετσάς Πάνος - Διώξε με και θα το δεις [1962, Μά
TTITLE15=ρκος Καράμπελας]
TTITLE16=Αγγελόπουλος Μανώλης - Μέσα στην ζωή μου την πικρή [1966, Θάνος Σοφός
TTITLE16=]
TTITLE17=Αγγελόπουλος Μανώλης - Μαρία [1967, Βασίλης Τσιτσάνης]
TTITLE18=Αγγελόπουλος Μανώλης - Η προσευχή μου έπιασε [1963, Δημήτρης Γκούτης]
TTITLE19=Αγγελόπουλος Μανώλης - Άλλα μού έλεγες μέσ' στην αγκαλιά σου [Βασίλης
TTITLE19=Τσιτσάνης]
EXTD=
EXTT0=
EXTT1=
EXTT2=
EXTT3=
EXTT4=
EXTT5=
EXTT6=
EXTT7=
EXTT8=
EXTT9=
EXTT10=
EXTT11=
EXTT12=
EXTT13=
EXTT14=
EXTT15=
EXTT16=
EXTT17=
EXTT18=
EXTT19=
PLAYORDER=
